<mxfile host="app.diagrams.net" modified="2024-04-07T12:04:22.273Z" agent="Mozilla/5.0 (Windows NT 10.0; Win64; x64) AppleWebKit/537.36 (KHTML, like Gecko) Chrome/121.0.0.0 Safari/537.36 OPR/107.0.0.0" etag="xnoRdgD44P9qTGGVqld9" version="24.0.2" type="device">
  <diagram name="Страница — 1" id="Mr-a5qJRFT9egZu9b4EL">
    <mxGraphModel dx="594" dy="348" grid="1" gridSize="10" guides="1" tooltips="1" connect="1" arrows="1" fold="1" page="1" pageScale="1" pageWidth="1169" pageHeight="827" math="0" shadow="0">
      <root>
        <mxCell id="0" />
        <mxCell id="1" parent="0" />
        <mxCell id="cYeco5_5NZNaWGogSFUn-57" value="" style="ellipse;whiteSpace=wrap;html=1;aspect=fixed;" vertex="1" parent="1">
          <mxGeometry x="400" y="200" width="240" height="240" as="geometry" />
        </mxCell>
        <mxCell id="cYeco5_5NZNaWGogSFUn-4" value="&lt;font style=&quot;font-size: 20px;&quot;&gt;X&lt;sub&gt;1&lt;/sub&gt;&lt;/font&gt;" style="text;html=1;align=center;verticalAlign=middle;whiteSpace=wrap;rounded=0;fontFamily=Times New Roman;" vertex="1" parent="1">
          <mxGeometry x="356" y="200" width="29" height="30" as="geometry" />
        </mxCell>
        <mxCell id="cYeco5_5NZNaWGogSFUn-79" style="edgeStyle=orthogonalEdgeStyle;rounded=0;orthogonalLoop=1;jettySize=auto;html=1;entryX=0;entryY=0.5;entryDx=0;entryDy=0;" edge="1" parent="1" source="cYeco5_5NZNaWGogSFUn-5" target="cYeco5_5NZNaWGogSFUn-73">
          <mxGeometry relative="1" as="geometry" />
        </mxCell>
        <mxCell id="cYeco5_5NZNaWGogSFUn-5" value="&lt;font style=&quot;font-size: 20px;&quot;&gt;X&lt;/font&gt;&lt;font style=&quot;font-size: 16.6667px;&quot;&gt;&lt;sub&gt;2&lt;/sub&gt;&lt;/font&gt;" style="text;html=1;align=center;verticalAlign=middle;whiteSpace=wrap;rounded=0;fontFamily=Times New Roman;" vertex="1" parent="1">
          <mxGeometry x="330" y="305" width="29" height="30" as="geometry" />
        </mxCell>
        <mxCell id="cYeco5_5NZNaWGogSFUn-7" value="&lt;span style=&quot;font-size: 20px;&quot;&gt;...&lt;/span&gt;" style="text;html=1;align=center;verticalAlign=middle;whiteSpace=wrap;rounded=0;fontFamily=Times New Roman;" vertex="1" parent="1">
          <mxGeometry x="325" y="355" width="60" height="30" as="geometry" />
        </mxCell>
        <mxCell id="cYeco5_5NZNaWGogSFUn-8" value="&lt;span style=&quot;font-size: 20px;&quot;&gt;X&lt;sub&gt;n&lt;/sub&gt;&lt;/span&gt;" style="text;html=1;align=center;verticalAlign=middle;whiteSpace=wrap;rounded=0;fontFamily=Times New Roman;" vertex="1" parent="1">
          <mxGeometry x="355" y="400" width="31" height="30" as="geometry" />
        </mxCell>
        <mxCell id="cYeco5_5NZNaWGogSFUn-56" value="&lt;span style=&quot;font-size: 20px;&quot;&gt;...&lt;/span&gt;" style="text;html=1;align=center;verticalAlign=middle;whiteSpace=wrap;rounded=0;fontFamily=Times New Roman;" vertex="1" parent="1">
          <mxGeometry x="665" y="325" width="60" height="30" as="geometry" />
        </mxCell>
        <mxCell id="cYeco5_5NZNaWGogSFUn-59" value="&lt;span style=&quot;font-family: &amp;quot;YS Text&amp;quot;, Arial, Helvetica, &amp;quot;Arial Unicode MS&amp;quot;, sans-serif; text-align: start; background-color: rgb(255, 255, 255);&quot;&gt;&lt;font style=&quot;font-size: 16px;&quot;&gt;Σ&lt;/font&gt;&lt;/span&gt;" style="whiteSpace=wrap;html=1;aspect=fixed;fontColor=#000000;" vertex="1" parent="1">
          <mxGeometry x="516" y="302.5" width="35" height="35" as="geometry" />
        </mxCell>
        <mxCell id="cYeco5_5NZNaWGogSFUn-62" value="&lt;font style=&quot;font-size: 16px;&quot;&gt;&lt;font style=&quot;font-size: 16px;&quot;&gt;F&lt;/font&gt;&lt;sub style=&quot;&quot;&gt;&lt;font style=&quot;font-size: 16px;&quot;&gt;акт&lt;/font&gt;.&lt;/sub&gt;&lt;/font&gt;" style="ellipse;whiteSpace=wrap;html=1;aspect=fixed;" vertex="1" parent="1">
          <mxGeometry x="571" y="297.5" width="45" height="45" as="geometry" />
        </mxCell>
        <mxCell id="cYeco5_5NZNaWGogSFUn-63" value="" style="endArrow=classic;html=1;rounded=0;exitX=1;exitY=0.5;exitDx=0;exitDy=0;entryX=0;entryY=0.5;entryDx=0;entryDy=0;" edge="1" parent="1" source="cYeco5_5NZNaWGogSFUn-59" target="cYeco5_5NZNaWGogSFUn-62">
          <mxGeometry width="50" height="50" relative="1" as="geometry">
            <mxPoint x="550" y="290" as="sourcePoint" />
            <mxPoint x="600" y="240" as="targetPoint" />
          </mxGeometry>
        </mxCell>
        <mxCell id="cYeco5_5NZNaWGogSFUn-64" value="" style="endArrow=classic;html=1;rounded=0;exitX=1;exitY=0.5;exitDx=0;exitDy=0;entryX=1;entryY=0.5;entryDx=0;entryDy=0;" edge="1" parent="1" source="cYeco5_5NZNaWGogSFUn-62" target="cYeco5_5NZNaWGogSFUn-57">
          <mxGeometry width="50" height="50" relative="1" as="geometry">
            <mxPoint x="550" y="290" as="sourcePoint" />
            <mxPoint x="600" y="240" as="targetPoint" />
          </mxGeometry>
        </mxCell>
        <mxCell id="cYeco5_5NZNaWGogSFUn-65" value="" style="endArrow=classic;html=1;rounded=0;exitX=1;exitY=0.5;exitDx=0;exitDy=0;entryX=0;entryY=1;entryDx=0;entryDy=0;" edge="1" parent="1" source="cYeco5_5NZNaWGogSFUn-57">
          <mxGeometry width="50" height="50" relative="1" as="geometry">
            <mxPoint x="550" y="290" as="sourcePoint" />
            <mxPoint x="680" y="230" as="targetPoint" />
          </mxGeometry>
        </mxCell>
        <mxCell id="cYeco5_5NZNaWGogSFUn-66" value="&lt;span style=&quot;font-size: 20px;&quot;&gt;Y&lt;/span&gt;" style="text;html=1;align=center;verticalAlign=middle;whiteSpace=wrap;rounded=0;fontFamily=Times New Roman;" vertex="1" parent="1">
          <mxGeometry x="640" y="220" width="30" height="30" as="geometry" />
        </mxCell>
        <mxCell id="cYeco5_5NZNaWGogSFUn-67" value="" style="endArrow=classic;html=1;rounded=0;exitX=1;exitY=0.5;exitDx=0;exitDy=0;" edge="1" parent="1" source="cYeco5_5NZNaWGogSFUn-57">
          <mxGeometry width="50" height="50" relative="1" as="geometry">
            <mxPoint x="550" y="290" as="sourcePoint" />
            <mxPoint x="720" y="280" as="targetPoint" />
          </mxGeometry>
        </mxCell>
        <mxCell id="cYeco5_5NZNaWGogSFUn-68" value="&lt;span style=&quot;font-size: 20px;&quot;&gt;Y&lt;/span&gt;" style="text;html=1;align=center;verticalAlign=middle;whiteSpace=wrap;rounded=0;fontFamily=Times New Roman;" vertex="1" parent="1">
          <mxGeometry x="680" y="260" width="30" height="30" as="geometry" />
        </mxCell>
        <mxCell id="cYeco5_5NZNaWGogSFUn-69" value="" style="endArrow=classic;html=1;rounded=0;exitX=1;exitY=0.5;exitDx=0;exitDy=0;" edge="1" parent="1" source="cYeco5_5NZNaWGogSFUn-57">
          <mxGeometry width="50" height="50" relative="1" as="geometry">
            <mxPoint x="550" y="410" as="sourcePoint" />
            <mxPoint x="680" y="400" as="targetPoint" />
          </mxGeometry>
        </mxCell>
        <mxCell id="cYeco5_5NZNaWGogSFUn-70" value="&lt;span style=&quot;font-size: 20px;&quot;&gt;Y&lt;/span&gt;" style="text;html=1;align=center;verticalAlign=middle;whiteSpace=wrap;rounded=0;fontFamily=Times New Roman;" vertex="1" parent="1">
          <mxGeometry x="640" y="370" width="30" height="30" as="geometry" />
        </mxCell>
        <mxCell id="cYeco5_5NZNaWGogSFUn-72" value="&lt;span style=&quot;font-size: 16px;&quot;&gt;Х&lt;/span&gt;" style="ellipse;whiteSpace=wrap;html=1;aspect=fixed;" vertex="1" parent="1">
          <mxGeometry x="470" y="260" width="25" height="25" as="geometry" />
        </mxCell>
        <mxCell id="cYeco5_5NZNaWGogSFUn-73" value="&lt;span style=&quot;font-size: 16px;&quot;&gt;Х&lt;/span&gt;" style="ellipse;whiteSpace=wrap;html=1;aspect=fixed;" vertex="1" parent="1">
          <mxGeometry x="445" y="307.5" width="25" height="25" as="geometry" />
        </mxCell>
        <mxCell id="cYeco5_5NZNaWGogSFUn-74" value="&lt;span style=&quot;font-size: 16px;&quot;&gt;Х&lt;/span&gt;" style="ellipse;whiteSpace=wrap;html=1;aspect=fixed;" vertex="1" parent="1">
          <mxGeometry x="470" y="355" width="25" height="25" as="geometry" />
        </mxCell>
        <mxCell id="cYeco5_5NZNaWGogSFUn-75" value="" style="endArrow=classic;html=1;rounded=0;exitX=1;exitY=1;exitDx=0;exitDy=0;entryX=0;entryY=0;entryDx=0;entryDy=0;" edge="1" parent="1" source="cYeco5_5NZNaWGogSFUn-72" target="cYeco5_5NZNaWGogSFUn-59">
          <mxGeometry width="50" height="50" relative="1" as="geometry">
            <mxPoint x="550" y="290" as="sourcePoint" />
            <mxPoint x="600" y="240" as="targetPoint" />
          </mxGeometry>
        </mxCell>
        <mxCell id="cYeco5_5NZNaWGogSFUn-76" value="" style="endArrow=classic;html=1;rounded=0;exitX=1;exitY=0;exitDx=0;exitDy=0;entryX=0;entryY=1;entryDx=0;entryDy=0;" edge="1" parent="1" source="cYeco5_5NZNaWGogSFUn-74" target="cYeco5_5NZNaWGogSFUn-59">
          <mxGeometry width="50" height="50" relative="1" as="geometry">
            <mxPoint x="550" y="290" as="sourcePoint" />
            <mxPoint x="600" y="240" as="targetPoint" />
          </mxGeometry>
        </mxCell>
        <mxCell id="cYeco5_5NZNaWGogSFUn-77" value="" style="endArrow=classic;html=1;rounded=0;exitX=1;exitY=0.5;exitDx=0;exitDy=0;entryX=0;entryY=0.5;entryDx=0;entryDy=0;" edge="1" parent="1" source="cYeco5_5NZNaWGogSFUn-73" target="cYeco5_5NZNaWGogSFUn-59">
          <mxGeometry width="50" height="50" relative="1" as="geometry">
            <mxPoint x="550" y="290" as="sourcePoint" />
            <mxPoint x="600" y="240" as="targetPoint" />
          </mxGeometry>
        </mxCell>
        <mxCell id="cYeco5_5NZNaWGogSFUn-78" value="" style="endArrow=classic;html=1;rounded=0;entryX=0;entryY=0;entryDx=0;entryDy=0;exitX=1;exitY=1;exitDx=0;exitDy=0;" edge="1" parent="1" source="cYeco5_5NZNaWGogSFUn-4" target="cYeco5_5NZNaWGogSFUn-72">
          <mxGeometry width="50" height="50" relative="1" as="geometry">
            <mxPoint x="550" y="290" as="sourcePoint" />
            <mxPoint x="600" y="240" as="targetPoint" />
          </mxGeometry>
        </mxCell>
        <mxCell id="cYeco5_5NZNaWGogSFUn-80" value="" style="endArrow=classic;html=1;rounded=0;exitX=1;exitY=0.5;exitDx=0;exitDy=0;entryX=0;entryY=1;entryDx=0;entryDy=0;" edge="1" parent="1" source="cYeco5_5NZNaWGogSFUn-8" target="cYeco5_5NZNaWGogSFUn-74">
          <mxGeometry width="50" height="50" relative="1" as="geometry">
            <mxPoint x="550" y="290" as="sourcePoint" />
            <mxPoint x="600" y="240" as="targetPoint" />
          </mxGeometry>
        </mxCell>
        <mxCell id="cYeco5_5NZNaWGogSFUn-82" style="edgeStyle=orthogonalEdgeStyle;rounded=0;orthogonalLoop=1;jettySize=auto;html=1;entryX=0.5;entryY=0;entryDx=0;entryDy=0;" edge="1" parent="1" source="cYeco5_5NZNaWGogSFUn-81" target="cYeco5_5NZNaWGogSFUn-59">
          <mxGeometry relative="1" as="geometry" />
        </mxCell>
        <mxCell id="cYeco5_5NZNaWGogSFUn-81" value="&lt;span style=&quot;font-size: 20px;&quot;&gt;b&lt;/span&gt;" style="text;html=1;align=center;verticalAlign=middle;whiteSpace=wrap;rounded=0;fontFamily=Times New Roman;" vertex="1" parent="1">
          <mxGeometry x="518.5" y="230" width="30" height="30" as="geometry" />
        </mxCell>
        <mxCell id="cYeco5_5NZNaWGogSFUn-83" value="&lt;span style=&quot;font-size: 20px;&quot;&gt;W&lt;/span&gt;&lt;span style=&quot;font-size: 16.6667px;&quot;&gt;&lt;sub&gt;1&lt;/sub&gt;&lt;/span&gt;" style="text;html=1;align=center;verticalAlign=middle;whiteSpace=wrap;rounded=0;fontFamily=Times New Roman;" vertex="1" parent="1">
          <mxGeometry x="467.5" y="210" width="30" height="30" as="geometry" />
        </mxCell>
        <mxCell id="cYeco5_5NZNaWGogSFUn-85" value="&lt;span style=&quot;font-size: 20px;&quot;&gt;W&lt;/span&gt;&lt;span style=&quot;font-size: 16.6667px;&quot;&gt;&lt;sub&gt;2&lt;/sub&gt;&lt;/span&gt;" style="text;html=1;align=center;verticalAlign=middle;whiteSpace=wrap;rounded=0;fontFamily=Times New Roman;" vertex="1" parent="1">
          <mxGeometry x="415" y="260" width="30" height="30" as="geometry" />
        </mxCell>
        <mxCell id="cYeco5_5NZNaWGogSFUn-86" value="&lt;span style=&quot;font-size: 20px;&quot;&gt;W&lt;/span&gt;&lt;span style=&quot;font-size: 16.6667px;&quot;&gt;&lt;sub&gt;n&lt;/sub&gt;&lt;/span&gt;" style="text;html=1;align=center;verticalAlign=middle;whiteSpace=wrap;rounded=0;fontFamily=Times New Roman;" vertex="1" parent="1">
          <mxGeometry x="467.5" y="400" width="30" height="30" as="geometry" />
        </mxCell>
        <mxCell id="cYeco5_5NZNaWGogSFUn-87" value="" style="endArrow=classic;html=1;rounded=0;exitX=0.5;exitY=0;exitDx=0;exitDy=0;entryX=0.5;entryY=1;entryDx=0;entryDy=0;" edge="1" parent="1" source="cYeco5_5NZNaWGogSFUn-86" target="cYeco5_5NZNaWGogSFUn-74">
          <mxGeometry width="50" height="50" relative="1" as="geometry">
            <mxPoint x="550" y="290" as="sourcePoint" />
            <mxPoint x="600" y="240" as="targetPoint" />
          </mxGeometry>
        </mxCell>
        <mxCell id="cYeco5_5NZNaWGogSFUn-88" value="" style="endArrow=classic;html=1;rounded=0;exitX=0.5;exitY=1;exitDx=0;exitDy=0;entryX=0.5;entryY=0;entryDx=0;entryDy=0;" edge="1" parent="1" source="cYeco5_5NZNaWGogSFUn-83" target="cYeco5_5NZNaWGogSFUn-72">
          <mxGeometry width="50" height="50" relative="1" as="geometry">
            <mxPoint x="480" y="310" as="sourcePoint" />
            <mxPoint x="530" y="260" as="targetPoint" />
          </mxGeometry>
        </mxCell>
        <mxCell id="cYeco5_5NZNaWGogSFUn-89" value="" style="endArrow=classic;html=1;rounded=0;entryX=0;entryY=0;entryDx=0;entryDy=0;exitX=0.75;exitY=1;exitDx=0;exitDy=0;" edge="1" parent="1" source="cYeco5_5NZNaWGogSFUn-85" target="cYeco5_5NZNaWGogSFUn-73">
          <mxGeometry width="50" height="50" relative="1" as="geometry">
            <mxPoint x="510" y="360" as="sourcePoint" />
            <mxPoint x="560" y="310" as="targetPoint" />
          </mxGeometry>
        </mxCell>
      </root>
    </mxGraphModel>
  </diagram>
</mxfile>
